<?xml version="1.0" encoding="iso-8859-1"?>
<!-- Generator: Adobe Illustrator 19.0.0, SVG Export Plug-In . SVG Version: 6.00 Build 0)  -->
<svg version="1.1" id="Capa_1" xmlns="http://www.w3.org/2000/svg" xmlns:xlink="http://www.w3.org/1999/xlink" x="0px" y="0px"
	 viewBox="0 0 507.006 507.006" style="enable-background:new 0 0 507.006 507.006;" xml:space="preserve">
<linearGradient id="SVGID_1_" gradientUnits="userSpaceOnUse" x1="-42.2763" y1="613.5504" x2="-27.18" y2="628.6467" gradientTransform="matrix(21.3333 0 0 -21.3333 996.3334 13433.9336)">
	<stop  offset="0" style="stop-color:#34CDFA"/>
	<stop  offset="1" style="stop-color:#E8D9F1"/>
</linearGradient>
<path style="fill:url(#SVGID_1_);" d="M450.133,58.649c-42.667-32-119.467-42.667-194.133,23.467
	c-76.8-64-151.467-53.333-194.133-23.467c-57.6,42.667-72.533,119.467-38.4,192c51.2,102.4,213.333,215.467,219.733,219.733
	c6.4,4.267,17.067,4.267,23.467,0c6.4-4.267,168.533-117.333,219.733-219.733C524.8,180.249,507.733,101.315,450.133,58.649z"/>
<path style="fill:#E6F9FE;" d="M317.867,231.449c-6.4-14.933-27.733-14.933-36.267-2.133l-19.2,27.733l-29.867-87.467
	c-6.4-19.2-34.133-17.067-40.533,0l-38.4,134.4H0v42.667h170.667c8.533,0,17.067-6.4,21.333-14.933l23.467-83.2l21.333,61.867
	c6.4,17.067,27.733,19.2,38.4,4.267l21.333-34.133l25.6,53.333l38.4-19.2L317.867,231.449z"/>
<g>
</g>
<g>
</g>
<g>
</g>
<g>
</g>
<g>
</g>
<g>
</g>
<g>
</g>
<g>
</g>
<g>
</g>
<g>
</g>
<g>
</g>
<g>
</g>
<g>
</g>
<g>
</g>
<g>
</g>
</svg>
